<svg width="23" height="23" viewBox="0 0 23 23" fill="none" xmlns="http://www.w3.org/2000/svg">
<path fill-rule="evenodd" clip-rule="evenodd" d="M4.49805 14.6174V15.9908C4.49805 17.0954 5.39348 17.9908 6.49805 17.9908H17.991L22.4885 22.4887L22.489 15.9908L22.4891 15.7421H22.489V6.49756C22.489 5.39299 21.5936 4.49756 20.489 4.49756H19.1157V14.6174H4.49805Z" fill="white"/>
<path fill-rule="evenodd" clip-rule="evenodd" d="M2.20974e-05 2C2.20974e-05 0.895429 0.895453 0 2.00002 0H15.991C17.0956 0 17.991 0.895431 17.991 2V11.4932C17.991 12.5978 17.0956 13.4932 15.991 13.4932H4.49813L0.000544855 17.9912L2.20974e-05 11.4932L0 11.2446H2.20974e-05V2ZM15.7419 2.24901H2.24862V11.2445H15.7419V2.24901Z" fill="white"/>
</svg>
