<svg width="20" height="18" viewBox="0 0 20 18" fill="none" xmlns="http://www.w3.org/2000/svg">
<path d="M10 0C11.808 0 13.4803 0.342852 15.0167 1.02856C16.5532 1.71426 17.7679 2.64668 18.6607 3.8258C19.5536 5.00489 20 6.29104 20 7.68423C20 9.07739 19.5536 10.3654 18.6607 11.5481C17.7679 12.7309 16.5551 13.6651 15.0223 14.3508C13.4896 15.0365 11.8155 15.3794 10 15.3794C9.42709 15.3794 8.83555 15.3394 8.22544 15.2596C5.57662 17.0519 4.16668 17.9589 3.99555 17.9806C3.91369 18.0097 3.83555 18.006 3.76115 17.9698C3.73138 17.948 3.70907 17.919 3.69419 17.8827C3.6793 17.8464 3.67188 17.8138 3.67188 17.7847V17.7412C3.71654 17.4582 4.05505 16.2791 4.6875 14.2039C3.25149 13.5073 2.11123 12.5839 1.26674 11.4338C0.422247 10.2837 0 9.03387 0 7.68423C0 6.29104 0.446429 5.00489 1.33929 3.8258C2.23214 2.64668 3.4468 1.71426 4.98326 1.02856C6.51971 0.342852 8.19196 0 10 0Z" fill="#34201F"/>
</svg>
