<svg width="35" height="35" viewBox="0 0 35 35" fill="none" xmlns="http://www.w3.org/2000/svg">
<circle cx="17.5" cy="17.5" r="17.5" fill="white"/>
<path d="M14.7266 24C15.8556 25.2153 18.7911 26.9167 21.5008 24" stroke="black" stroke-width="2" stroke-linecap="round"/>
<path d="M12 11C12 11 12.72 10.5 14 10.5C15.28 10.5 16 11 16 11" stroke="black" stroke-width="1.6" stroke-linecap="round"/>
<path d="M20 11C20 11 20.72 10.5 22 10.5C23.28 10.5 24 11 24 11" stroke="black" stroke-width="1.6" stroke-linecap="round"/>
<path d="M14 19L13.6375 18.7123C12.35 17.6943 11.5 17.0207 11.5 16.1989C11.5 15.5253 12.105 15 12.875 15C13.31 15 13.7275 15.1766 14 15.4534C14.2725 15.1766 14.69 15 15.125 15C15.895 15 16.5 15.5253 16.5 16.1989C16.5 17.0207 15.65 17.6943 14.3625 18.7123L14 19Z" fill="black"/>
<path d="M21.8633 19L21.5008 18.7123C20.2133 17.6943 19.3633 17.0207 19.3633 16.1989C19.3633 15.5253 19.9683 15 20.7383 15C21.1733 15 21.5908 15.1766 21.8633 15.4534C22.1358 15.1766 22.5533 15 22.9883 15C23.7583 15 24.3633 15.5253 24.3633 16.1989C24.3633 17.0207 23.5133 17.6943 22.2258 18.7123L21.8633 19Z" fill="black"/>
</svg>
