<svg width="14" height="16" viewBox="0 0 14 16" fill="none" xmlns="http://www.w3.org/2000/svg">
<path d="M5.20994 16C4.75362 16 4.32143 15.768 4.04449 15.3679L0.296347 9.97201C0.180465 9.80537 0.0958645 9.61548 0.0473806 9.41319C-0.00110318 9.2109 -0.012519 9.00019 0.0137855 8.79309C0.0400901 8.58599 0.103599 8.38657 0.200682 8.20623C0.297766 8.0259 0.426519 7.86818 0.579582 7.74209C0.73259 7.61547 0.907027 7.523 1.0929 7.46998C1.27876 7.41696 1.47241 7.40442 1.66273 7.43309C1.85306 7.46176 2.03632 7.53107 2.20201 7.63705C2.3677 7.74303 2.51257 7.88359 2.62831 8.05069L5.09455 11.5984L11.2953 0.749434C11.5009 0.391229 11.8286 0.136516 12.2064 0.0411668C12.5841 -0.0541826 12.9812 0.0176168 13.3105 0.240816C13.9955 0.704859 14.2063 1.68781 13.7783 2.43531L6.45198 15.2479C6.32691 15.4676 6.15453 15.6508 5.94979 15.7814C5.74504 15.9121 5.51413 15.9863 5.27708 15.9977C5.254 16 5.23302 16 5.20994 16Z" fill="white"/>
</svg>
