<svg width="16" height="16" viewBox="0 0 16 16" fill="none" xmlns="http://www.w3.org/2000/svg">
<path d="M12.5075 4.73094L10.7414 2.96476C10.5108 2.74824 10.2088 2.624 9.89265 2.61568C9.5765 2.60736 9.26833 2.71554 9.02675 2.91964L3.22543 8.72096C3.01707 8.93107 2.88734 9.20647 2.85801 9.50091L2.58083 12.1889C2.57215 12.2833 2.5844 12.3784 2.61671 12.4676C2.64902 12.5567 2.7006 12.6376 2.76777 12.7045C2.828 12.7643 2.89943 12.8115 2.97796 12.8436C3.0565 12.8757 3.14059 12.892 3.22543 12.8915H3.28344L5.97138 12.6465C6.26583 12.6172 6.54123 12.4875 6.75134 12.2791L12.5527 6.47778C12.7778 6.23991 12.8995 5.92247 12.8911 5.59504C12.8826 5.2676 12.7447 4.95687 12.5075 4.73094ZM10.3159 6.88387L8.58843 5.15637L9.84538 3.86719L11.6051 5.62692L10.3159 6.88387Z" fill="white"/>
</svg>
