<svg width="102" height="12" viewBox="0 0 102 12" fill="none" xmlns="http://www.w3.org/2000/svg">
<g clip-path="url(#clip0_668_1031)">
<path d="M7.47854 0.157715C8.05531 0.157715 8.53198 0.245569 8.90616 0.423531C9.28035 0.601492 9.57588 0.844781 9.79515 1.15565C10.012 1.46652 10.1646 1.83145 10.2504 2.24594C10.3362 2.66269 10.3791 3.10872 10.3791 3.58854C10.3791 4.06836 10.3362 4.51889 10.2504 4.94465C10.1646 5.37041 10.012 5.7421 9.79515 6.05747C9.57827 6.37285 9.28035 6.62514 8.90616 6.81212C8.53198 6.99909 8.05531 7.09145 7.47854 7.09145H2.28285V11.4977C2.28285 11.6328 2.24948 11.75 2.18513 11.8491C2.1184 11.9505 2.01115 12 1.85861 12H0.461973C0.309439 12 0.202188 11.9505 0.135455 11.8491C0.068721 11.7477 0.0377375 11.6306 0.0377375 11.4977V5.46952C0.0377375 5.33662 0.0711044 5.22173 0.135455 5.12486C0.202188 5.03025 0.309439 4.98069 0.461973 4.98069H7.0829C7.31647 4.98069 7.49999 4.94465 7.63822 4.87256C7.77407 4.80048 7.87894 4.70361 7.95044 4.57746C8.02194 4.45357 8.06961 4.30939 8.09583 4.1472C8.12204 3.98501 8.13396 3.81155 8.13396 3.63134C8.13396 3.45113 8.12204 3.27767 8.09583 3.11548C8.06961 2.95328 8.02194 2.80911 7.95044 2.68522C7.87894 2.56132 7.77646 2.4622 7.63822 2.39012C7.50237 2.31803 7.31647 2.28199 7.0829 2.28199H0.461973C0.309439 2.28199 0.202188 2.23468 0.135455 2.13782C0.068721 2.0432 0.0377375 1.92832 0.0377375 1.79316C0.0377375 1.68728 0.0305875 1.54536 0.0139041 1.3629C-0.000395972 1.18268 -0.00516266 1.00022 0.00675406 0.817749C0.0162874 0.635282 0.054421 0.479847 0.121155 0.351445C0.187888 0.223042 0.299905 0.157715 0.461973 0.157715H7.47854Z" fill="white"/>
<path d="M21.7845 0.157715C21.937 0.157715 22.0442 0.205021 22.111 0.301886C22.1777 0.396498 22.2087 0.511385 22.2087 0.646545V7.49468C22.2087 8.15471 22.1634 8.76068 22.0728 9.31033C21.9823 9.85999 21.8011 10.3353 21.5342 10.7318C21.2649 11.1282 20.8859 11.4369 20.395 11.6576C19.904 11.8784 19.2581 11.9888 18.4597 11.9888H15.042C14.2412 11.9888 13.5977 11.8784 13.1067 11.6576C12.6157 11.4369 12.2368 11.1282 11.9675 10.7318C11.6981 10.3353 11.5194 9.86224 11.4288 9.31033C11.3383 8.76068 11.293 8.15471 11.293 7.49468V0.646545C11.293 0.513637 11.3263 0.398751 11.3907 0.301886C11.4574 0.207274 11.5694 0.157715 11.7315 0.157715H13.1138C13.2664 0.157715 13.3736 0.205021 13.4404 0.301886C13.5071 0.396498 13.5381 0.511385 13.5381 0.646545V7.72445C13.5381 8.0218 13.5476 8.29888 13.5691 8.55794C13.5881 8.817 13.6501 9.04452 13.7502 9.2405C13.8503 9.43648 14.0076 9.58967 14.2221 9.70005C14.4342 9.81043 14.7321 9.86449 15.1182 9.86449H18.3977C18.7814 9.86449 19.0817 9.81043 19.2939 9.70005C19.506 9.58967 19.6609 9.43874 19.7562 9.24726C19.8516 9.05578 19.9111 8.82826 19.9302 8.5647C19.9493 8.30114 19.9612 8.0218 19.9612 7.72445V0.646545C19.9612 0.513637 19.9946 0.398751 20.0613 0.301886C20.128 0.207274 20.2353 0.157715 20.3878 0.157715H21.7845Z" fill="white"/>
<path d="M25.1418 0.157715C25.2943 0.157715 25.4016 0.207274 25.4683 0.308644C25.5351 0.410014 25.5661 0.527154 25.5661 0.660061V7.7222C25.5661 8.02856 25.5899 8.31015 25.6352 8.5692C25.6805 8.82826 25.7639 9.05353 25.8854 9.24501C26.007 9.43648 26.169 9.58516 26.3716 9.69104C26.5742 9.79691 26.8268 9.84872 27.1319 9.84872H32.0678C32.2204 9.84872 32.3276 9.89828 32.3943 9.99965C32.4611 10.101 32.4921 10.2182 32.4921 10.3511V11.4842C32.4921 11.6193 32.4587 11.7365 32.3943 11.8356C32.3276 11.937 32.2204 11.9865 32.0678 11.9865H27.0556C26.2668 11.9865 25.6256 11.8739 25.1347 11.6486C24.6437 11.4233 24.2647 11.1102 23.9954 10.7092C23.7261 10.3083 23.545 9.8307 23.4496 9.28105C23.3543 8.7314 23.3066 8.12993 23.3066 7.47891V0.660061C23.3066 0.527154 23.34 0.407762 23.4044 0.308644C23.4711 0.207274 23.5831 0.157715 23.7452 0.157715H25.1418Z" fill="white"/>
<path d="M35.0871 0.157715C35.2397 0.157715 35.3469 0.207274 35.4136 0.308644C35.4804 0.410014 35.5114 0.527154 35.5114 0.660061V7.7222C35.5114 8.02856 35.5352 8.31015 35.5805 8.5692C35.6258 8.82826 35.7092 9.05353 35.8307 9.24501C35.9523 9.43648 36.1144 9.58516 36.3169 9.69104C36.5195 9.79691 36.7722 9.84872 37.0772 9.84872H42.0131C42.1657 9.84872 42.2729 9.89828 42.3396 9.99965C42.4064 10.101 42.4374 10.2182 42.4374 10.3511V11.4842C42.4374 11.6193 42.404 11.7365 42.3396 11.8356C42.2729 11.937 42.1657 11.9865 42.0131 11.9865H37.001C36.2121 11.9865 35.5709 11.8739 35.08 11.6486C34.589 11.4233 34.2101 11.1102 33.9407 10.7092C33.6714 10.3083 33.4903 9.8307 33.395 9.28105C33.2996 8.7314 33.252 8.12993 33.252 7.47891V0.660061C33.252 0.527154 33.2853 0.407762 33.3497 0.308644C33.4164 0.207274 33.5284 0.157715 33.6905 0.157715H35.0871Z" fill="white"/>
<path d="M49.2852 0C49.5593 0 49.7928 0.0382955 49.9907 0.114886C50.1885 0.191477 50.3601 0.2951 50.5078 0.423503C50.6556 0.551905 50.7819 0.70734 50.8868 0.889807C50.994 1.07227 51.0918 1.27276 51.1823 1.49352L55.4509 11.4413C55.4914 11.5382 55.5105 11.6193 55.5105 11.6846C55.5105 11.7792 55.4771 11.8558 55.4104 11.9144C55.3436 11.973 55.2602 12 55.1601 12H53.5347C53.3226 12 53.1748 11.8941 53.0938 11.6846L49.3114 2.77079H49.2518L47.2784 7.46537H49.1612C49.3638 7.46537 49.5116 7.55998 49.6022 7.75146C49.6331 7.81904 49.6808 7.92041 49.7452 8.06007C49.8095 8.19974 49.8763 8.3394 49.943 8.48357C50.0097 8.62775 50.0645 8.76291 50.1098 8.89356C50.1551 9.02196 50.1789 9.12108 50.1789 9.18866C50.1789 9.32382 50.1337 9.43195 50.0431 9.5198C49.9525 9.60541 49.8357 9.64821 49.6927 9.64821H46.3656L45.5004 11.7004C45.4194 11.9009 45.2764 12.0023 45.0738 12.0023H43.4031C43.1695 12.0023 43.0527 11.8964 43.0527 11.6869C43.0527 11.5923 43.067 11.5089 43.098 11.4436L47.3356 1.49578C47.5167 1.06552 47.7551 0.709593 48.0506 0.425756C48.3438 0.144171 48.7537 0.00225268 49.2804 0.00225268L49.2852 0Z" fill="white"/>
<path d="M66.786 0.157715C66.9385 0.157715 67.0458 0.207274 67.1125 0.308644C67.1792 0.410014 67.2126 0.527154 67.2126 0.660061V10.1348C67.2126 10.3556 67.1983 10.5763 67.1673 10.7948C67.1363 11.0156 67.0625 11.2138 66.9481 11.3896C66.8313 11.5675 66.6573 11.7094 66.4237 11.8198C66.1902 11.9302 65.866 11.9843 65.4513 11.9843C65.1772 11.9843 64.9341 11.9798 64.722 11.9707C64.5099 11.9617 64.3145 11.9234 64.1381 11.8559C63.9617 11.7883 63.7973 11.6847 63.6447 11.5405C63.4922 11.3963 63.3421 11.1958 63.1895 10.9368L58.3299 2.84065H58.2536V11.4819C58.2536 11.6171 58.2203 11.7342 58.1559 11.8333C58.0892 11.9347 57.9819 11.9843 57.8294 11.9843H56.478C56.3255 11.9843 56.2159 11.9347 56.1444 11.8333C56.0729 11.732 56.0371 11.6148 56.0371 11.4819V2.00941C56.0371 1.77964 56.049 1.55437 56.0752 1.33361C56.1015 1.11285 56.1587 0.916866 56.2492 0.745663C56.3398 0.57446 56.4709 0.432541 56.6449 0.32216C56.8165 0.211779 57.05 0.157715 57.3432 0.157715H58.4824C58.7351 0.157715 58.94 0.177989 59.0973 0.214032C59.2546 0.252327 59.3857 0.313149 59.493 0.394246C59.6002 0.475342 59.6979 0.58347 59.7885 0.716378C59.8791 0.851539 59.9815 1.01373 60.0912 1.20521L64.9365 9.30132H65.0128V0.660061C65.0128 0.527154 65.0438 0.407762 65.1034 0.308644C65.1629 0.207274 65.275 0.157715 65.437 0.157715H66.7884H66.786Z" fill="white"/>
<path d="M79.1786 0.157715C79.3311 0.157715 79.4384 0.207274 79.5051 0.308644C79.5718 0.410014 79.6052 0.527154 79.6052 0.660061V10.1348C79.6052 10.3556 79.5909 10.5763 79.5599 10.7948C79.5289 11.0156 79.455 11.2138 79.3406 11.3896C79.2239 11.5675 79.0499 11.7094 78.8163 11.8198C78.5827 11.9302 78.2586 11.9843 77.8439 11.9843C77.5698 11.9843 77.3267 11.9798 77.1146 11.9707C76.9025 11.9617 76.707 11.9234 76.5307 11.8559C76.3543 11.7883 76.1899 11.6847 76.0373 11.5405C75.8848 11.3963 75.7346 11.1958 75.5821 10.9368L70.7225 2.84065H70.6462V11.4819C70.6462 11.6171 70.6128 11.7342 70.5485 11.8333C70.4818 11.9347 70.3745 11.9843 70.222 11.9843H68.8706C68.7181 11.9843 68.6084 11.9347 68.5369 11.8333C68.4654 11.732 68.4297 11.6148 68.4297 11.4819V2.00941C68.4297 1.77964 68.4416 1.55437 68.4678 1.33361C68.494 1.11285 68.5512 0.916866 68.6418 0.745663C68.7324 0.57446 68.8635 0.432541 69.0374 0.32216C69.209 0.211779 69.4426 0.157715 69.7358 0.157715H70.875C71.1276 0.157715 71.3326 0.177989 71.4899 0.214032C71.6472 0.252327 71.7783 0.313149 71.8855 0.394246C71.9928 0.475342 72.0905 0.58347 72.1811 0.716378C72.2716 0.851539 72.3741 1.01373 72.4838 1.20521L77.3291 9.30132H77.4054V0.660061C77.4054 0.527154 77.4363 0.407762 77.4959 0.308644C77.5555 0.207274 77.6675 0.157715 77.8296 0.157715H79.181H79.1786Z" fill="white"/>
<path d="M89.8124 0.157715C89.872 0.157715 89.9602 0.187 90.0698 0.243317C90.1819 0.299633 90.2367 0.439299 90.2367 0.660061V1.77964C90.2367 2.0004 90.1819 2.13782 90.0698 2.19639C89.9578 2.2527 89.872 2.28199 89.8124 2.28199H81.0799C81.0203 2.28199 80.9345 2.25496 80.8296 2.20314C80.7224 2.15133 80.6699 2.01392 80.6699 1.79316V0.673577C80.6699 0.443805 80.7224 0.299633 80.8296 0.243317C80.9369 0.187 81.0203 0.157715 81.0799 0.157715H89.8124ZM82.9484 8.55569C82.9484 9.04452 83.0819 9.38242 83.3512 9.5739C83.6181 9.76537 83.9875 9.85999 84.4523 9.85999H89.7981C89.9602 9.85999 90.0746 9.90729 90.139 10.0042C90.2057 10.101 90.2367 10.2159 90.2367 10.3488V11.4977C90.2367 11.6328 90.2033 11.7477 90.139 11.8423C90.0722 11.9392 89.9602 11.9865 89.7981 11.9865H84.407C83.6777 11.9865 83.0723 11.8874 82.5909 11.6914C82.1095 11.4954 81.7281 11.2161 81.4445 10.8512C81.1609 10.4885 80.9607 10.0492 80.8439 9.53785C80.7271 9.0265 80.6699 8.45432 80.6699 7.82132V5.92682C80.6699 5.81193 80.689 5.69479 80.7295 5.5754C80.77 5.45601 80.8391 5.35013 80.9345 5.26002C81.0298 5.16992 81.1561 5.09558 81.3134 5.03701C81.4707 4.98069 81.6662 4.95141 81.8973 4.95141H89.7338C89.8863 4.95141 89.9936 4.99871 90.0603 5.09558C90.127 5.19019 90.158 5.30508 90.158 5.44024V6.57333C90.158 6.70849 90.1246 6.82563 90.0603 6.92475C89.9936 7.02612 89.8863 7.07568 89.7338 7.07568H82.946V8.55343L82.9484 8.55569Z" fill="white"/>
<path d="M99.2804 7.06216C99.34 7.14777 99.4473 7.31221 99.5998 7.55775C99.7523 7.80104 99.9287 8.08488 100.131 8.40476C100.334 8.72464 100.544 9.06029 100.76 9.40945C100.977 9.75862 101.18 10.0898 101.368 10.4006C101.557 10.7115 101.707 10.9751 101.823 11.1891C101.94 11.4053 101.997 11.5405 101.997 11.5991C101.997 11.7049 101.971 11.795 101.921 11.8716C101.871 11.9482 101.778 11.9865 101.647 11.9865H99.9764C99.8548 11.9865 99.7595 11.964 99.688 11.9212C99.6165 11.8784 99.5521 11.804 99.4902 11.6982L96.7422 7.10496H93.5366V11.4842C93.5366 11.6193 93.5032 11.7365 93.4388 11.8356C93.3745 11.9347 93.2649 11.9865 93.1123 11.9865H91.73C91.5774 11.9865 91.4678 11.937 91.3963 11.8356C91.3248 11.7342 91.2891 11.6171 91.2891 11.4842V5.46952C91.2891 5.33661 91.3224 5.22173 91.3868 5.12486C91.4511 5.028 91.5655 4.98069 91.7276 4.98069H98.3342C98.5678 4.98069 98.7513 4.94465 98.8896 4.87256C99.0254 4.80048 99.1303 4.70361 99.2018 4.57746C99.2733 4.45357 99.3209 4.30939 99.3471 4.1472C99.3734 3.98501 99.3853 3.81155 99.3853 3.63134C99.3853 3.45113 99.3734 3.27767 99.3471 3.11548C99.3209 2.95328 99.2733 2.80911 99.2018 2.68522C99.1303 2.56132 99.0278 2.4622 98.8896 2.39012C98.7537 2.31803 98.5678 2.28199 98.3342 2.28199H91.7276C91.5655 2.28199 91.4511 2.23468 91.3868 2.13782C91.32 2.0432 91.2891 1.92832 91.2891 1.79316V0.660061C91.2891 0.527154 91.3224 0.407762 91.3868 0.308644C91.4535 0.207274 91.5655 0.157715 91.7276 0.157715H98.7299C99.3066 0.157715 99.7833 0.247822 100.157 0.430289C100.532 0.612755 100.827 0.860549 101.046 1.17592C101.263 1.4913 101.418 1.86074 101.509 2.28199C101.599 2.70324 101.645 3.15377 101.645 3.63134C101.645 4.03232 101.611 4.42879 101.547 4.81625C101.48 5.20371 101.359 5.55287 101.182 5.86374C101.006 6.17461 100.765 6.43817 100.46 6.65218C100.155 6.86618 99.7619 7.00359 99.2757 7.06216H99.2804Z" fill="white"/>
</g>
<defs>
<clipPath id="clip0_668_1031">
<rect width="102" height="12" fill="white"/>
</clipPath>
</defs>
</svg>
