<svg width="35" height="35" viewBox="0 0 35 35" fill="none" xmlns="http://www.w3.org/2000/svg">
<circle cx="17.5" cy="17.5" r="15.5" fill="white" stroke="black" stroke-width="3"/>
<path d="M24.7269 12.725L22.0046 10.0026C21.6493 9.66888 21.1837 9.47738 20.6964 9.46456C20.2091 9.45173 19.7341 9.61848 19.3617 9.93307L10.4196 18.8751C10.0985 19.199 9.89849 19.6235 9.85328 20.0773L9.42605 24.2205C9.41267 24.366 9.43155 24.5127 9.48135 24.6501C9.53116 24.7875 9.61066 24.9122 9.71418 25.0154C9.80702 25.1074 9.91713 25.1803 10.0382 25.2297C10.1592 25.2792 10.2889 25.3042 10.4196 25.3035H10.509L14.6522 24.9259C15.1061 24.8807 15.5305 24.6808 15.8544 24.3596L24.7965 15.4175C25.1435 15.0509 25.3311 14.5616 25.3181 14.0569C25.305 13.5522 25.0925 13.0732 24.7269 12.725ZM21.3488 16.0435L18.6861 13.3807L20.6235 11.3936L23.3359 14.106L21.3488 16.0435Z" fill="#231F20"/>
</svg>
