<svg width="21" height="23" viewBox="0 0 21 23" fill="none" xmlns="http://www.w3.org/2000/svg">
<path fill-rule="evenodd" clip-rule="evenodd" d="M0 1.14032C0 0.510539 0.510538 0 1.14032 0C1.7701 0 2.28064 0.510538 2.28064 1.14032V2.28108H18.2451V1.14032C18.2451 0.510539 18.7556 0 19.3854 0C20.0152 0 20.5257 0.510538 20.5257 1.14032V21.666C20.5257 22.2958 20.0152 22.8064 19.3854 22.8064C18.7556 22.8064 18.2451 22.2958 18.2451 21.666V4.56172H2.28064V21.666C2.28064 22.2958 1.7701 22.8064 1.14032 22.8064C0.510538 22.8064 0 22.2958 0 21.666V1.14032Z" fill="white"/>
</svg>
